<svg width="55" height="55" viewBox="0 0 55 55" fill="none" xmlns="http://www.w3.org/2000/svg">
<path d="M8.63574 32.4558V18.4889H15.1152V22.3046H34.2477V17.229C34.2477 17.229 34.0857 13.5033 30 13.5393H19.1649C19.1649 13.5393 15.6732 13.9353 15.1152 18.5069" stroke="#213745" stroke-width="2" stroke-linecap="round" stroke-linejoin="round"/>
<path d="M25.2475 12.5848C28.1898 12.5848 30.5751 10.1996 30.5751 7.25726C30.5751 4.31492 28.1898 1.92969 25.2475 1.92969C22.3052 1.92969 19.9199 4.31492 19.9199 7.25726C19.9199 10.1996 22.3052 12.5848 25.2475 12.5848Z" stroke="#213745" stroke-width="2" stroke-linecap="round" stroke-linejoin="round"/>
<path d="M1.94238 50.4536C2.35635 47.0159 4.98414 46.7279 4.98414 46.7279H13.1375C16.2152 46.6919 16.3412 49.4997 16.3412 49.4997V53.3153H1.94238V50.4536Z" stroke="#213745" stroke-width="2" stroke-linecap="round" stroke-linejoin="round"/>
<path d="M9.55915 45.9904C11.7659 45.9904 13.5548 44.2014 13.5548 41.9947C13.5548 39.7879 11.7659 37.999 9.55915 37.999C7.3524 37.999 5.56348 39.7879 5.56348 41.9947C5.56348 44.2014 7.3524 45.9904 9.55915 45.9904Z" stroke="#213745" stroke-width="2" stroke-linecap="round" stroke-linejoin="round"/>
<path d="M5.35938 29.6292L8.7251 32.455L11.9108 29.3232" stroke="#213745" stroke-width="2" stroke-linecap="round" stroke-linejoin="round"/>
<path d="M21.9727 36.2715V54H53.9561" stroke="#213745" stroke-width="2" stroke-linecap="round" stroke-linejoin="round"/>
<path d="M31.001 39H26.001V50H31.001V39Z" fill="#213745" stroke="#213745" stroke-width="2" stroke-linecap="round" stroke-linejoin="round"/>
<path d="M41.001 34H35.001V50H41.001V34Z" fill="#213745" stroke="#213745" stroke-width="2" stroke-linecap="round" stroke-linejoin="round"/>
<path d="M51.001 28H45.001V50H51.001V28Z" fill="#213745" stroke="#213745" stroke-width="2" stroke-linecap="round" stroke-linejoin="round"/>
</svg>
