<svg width="56" height="56" viewBox="0 0 56 56" fill="none" xmlns="http://www.w3.org/2000/svg">
<path d="M10.5709 13.752H14.6349C14.9271 13.752 15.1641 13.9884 15.1641 14.2802C15.1641 14.5719 14.9271 14.8084 14.6349 14.8084H10.5709C10.2786 14.8084 10.0417 14.5719 10.0417 14.2802C10.0417 13.9884 10.2786 13.752 10.5709 13.752Z" fill="white"/>
<path d="M12.0781 16.3119V12.248C12.0781 11.9557 12.3146 11.7188 12.6063 11.7188C12.8981 11.7188 13.1346 11.9557 13.1346 12.248V16.3119C13.1346 16.6042 12.8981 16.8411 12.6063 16.8411C12.3146 16.8411 12.0781 16.6042 12.0781 16.3119Z" fill="white"/>
<path d="M41.4068 21.8926H45.4708C45.7631 21.8926 46 22.1291 46 22.4208C46 22.7125 45.7631 22.949 45.4708 22.949H41.4068C41.1146 22.949 40.8776 22.7125 40.8776 22.4208C40.8776 22.1291 41.1146 21.8926 41.4068 21.8926Z" fill="white"/>
<path d="M42.9141 24.4525V20.3886C42.9141 20.0963 43.1506 19.8594 43.4423 19.8594C43.734 19.8594 43.9705 20.0963 43.9705 20.3886V24.4525C43.9705 24.7448 43.734 24.9818 43.4423 24.9818C43.1506 24.9818 42.9141 24.7448 42.9141 24.4525Z" fill="white"/>
<path d="M29.3331 13.7539C29.3331 13.7539 38.2838 14.6006 38.8489 27.0761L41.8085 31.9388C41.8085 31.9388 43.2184 34.1236 41.1735 34.3353L39.2004 35.2519V41.1731C39.2004 41.1731 39.1305 43.5695 36.804 43.7113H24.4703L20.5941 39.2" stroke="white" stroke-width="2" stroke-miterlimit="10" stroke-linecap="round"/>
<path d="M29.0977 43.709V50.6866" stroke="white" stroke-width="2" stroke-miterlimit="10" stroke-linecap="round"/>
<path d="M22.8867 13.7539C21.2551 14.4688 19.7154 15.4634 18.3315 16.5777C15.7234 18.6746 13.5666 21.5064 13.1872 24.9173C13.1093 25.6143 13.1452 26.3232 13.1312 27.0242C13.0913 28.9553 13.7803 30.8305 14.2735 32.6837C14.667 34.1655 15.0624 35.6453 15.4558 37.1271L15.5576 37.5066V51.286" stroke="white" stroke-width="2" stroke-miterlimit="10" stroke-linecap="round"/>
<path d="M27.7525 32.0413V9.80442H30.3945L26.025 4.13086L21.8313 9.84036H24.4753V33.7687" stroke="white" stroke-width="2" stroke-linecap="round" stroke-linejoin="round"/>
<path d="M34.0587 30.6669C34.0587 30.6669 39.5206 19.847 27.7501 16.3242" stroke="white" stroke-width="2" stroke-miterlimit="10" stroke-linecap="round"/>
<path d="M23.9779 16.5703C23.9779 16.5703 17.2459 18.5793 17.2818 25.3812C17.2818 25.3812 16.8944 33.8047 26.7617 34.5795" stroke="white" stroke-width="2" stroke-miterlimit="10" stroke-linecap="round"/>
<path d="M37.6182 29.8239L33.8118 31.1619L32.0844 27.4414" stroke="white" stroke-width="2" stroke-miterlimit="10" stroke-linecap="round"/>
</svg>
