<svg width="55" height="58" viewBox="0 0 55 58" fill="none" xmlns="http://www.w3.org/2000/svg">
<path d="M23.0093 44.8257C22.9198 44.0305 22.7185 43.2465 22.3271 42.4961C21.6448 41.1857 20.4705 40.3345 19.5311 39.2257C18.7259 38.2849 17.9877 37.2769 17.3279 36.2353C15.4938 33.3457 14.1293 29.9969 14.1853 26.5249C14.2524 21.9665 16.97 18.2145 20.5153 15.5713C23.7362 13.1633 28.9367 12.7377 32.5602 14.1937C36.5752 15.7953 39.8297 19.3233 41.0152 23.5345C42.402 28.4625 40.3889 32.9201 37.4475 36.8289C36.9219 37.5233 36.3739 38.1953 35.8147 38.8449C34.5957 40.2449 33.4102 41.8913 32.974 43.7281C32.1352 47.2561 34.0253 55.3873 28.2992 55.8913C27.0466 56.0033 25.7493 55.1409 24.9888 54.2337C23.9487 53.0129 23.479 51.3889 23.2441 49.8321C22.9981 48.1745 23.2106 46.4721 23.0204 44.8481L23.0093 44.8257Z" stroke="#213745" stroke-width="3" stroke-miterlimit="10" stroke-linecap="round"/>
<path d="M20.8633 52.3243L34.8989 50.5771" stroke="#213745" stroke-width="3" stroke-miterlimit="10" stroke-linecap="round"/>
<path d="M20.8633 47.5395L34.8989 45.7363" stroke="#213745" stroke-width="3" stroke-miterlimit="10" stroke-linecap="round"/>
<path d="M47.9258 26.2224L52.8802 25.416" stroke="#213745" stroke-width="3" stroke-miterlimit="10" stroke-linecap="round"/>
<path d="M43.4414 12.2899L46.4051 8.28027" stroke="#213745" stroke-width="3" stroke-miterlimit="10" stroke-linecap="round"/>
<path d="M28.9805 7.08172V2.12012" stroke="#213745" stroke-width="3" stroke-miterlimit="10" stroke-linecap="round"/>
<path d="M12.2735 11.002L8.4375 7.08203" stroke="#213745" stroke-width="3" stroke-miterlimit="10" stroke-linecap="round"/>
<path d="M7.31765 27.3428H2.11719" stroke="#213745" stroke-width="3" stroke-miterlimit="10" stroke-linecap="round"/>
<path d="M28.3088 19.4319C28.9781 19.6457 29.6373 19.7846 30.2357 20.0624C31.6149 20.7036 32.4668 21.8043 32.7001 23.4072C32.7508 23.7492 32.6494 23.8774 32.3249 23.8881C31.8786 23.8881 31.4324 23.8881 30.976 23.8881C30.6819 23.8881 30.6109 23.824 30.5602 23.5141C30.3371 22.3493 29.4142 21.6547 28.3899 21.5051C28.3696 21.5051 28.3493 21.5051 28.3088 21.5157C28.3088 21.5906 28.2986 21.6654 28.2986 21.7402C28.2986 23.2255 28.2986 24.7002 28.2986 26.1856C28.2986 26.378 28.3493 26.4528 28.5319 26.4955C29.3838 26.6985 30.2255 26.9229 31.0065 27.3611C32.0206 27.9381 32.7102 28.7823 32.9131 30.0006C33.268 32.0523 32.548 33.9972 30.5298 34.9376C29.901 35.2368 29.2317 35.4078 28.5522 35.4932C28.5116 35.4932 28.4609 35.5039 28.4203 35.5146C28.3899 35.5146 28.3493 35.536 28.3088 35.5574C28.3088 35.8993 28.3088 36.2413 28.3088 36.5726C28.3088 36.8931 28.2074 37 27.9133 37C27.6699 37 27.4163 37 27.1729 37C26.8281 37 26.747 36.9252 26.747 36.5619C26.747 36.2306 26.747 35.8993 26.747 35.5787C26.321 35.5039 25.9154 35.4398 25.5097 35.3436C24.1 34.991 22.954 34.243 22.3455 32.7896C22.1731 32.3729 22.1021 31.9027 22.0108 31.4539C21.9601 31.2295 22.092 31.0906 22.3151 31.0906C22.8424 31.0906 23.3799 31.0906 23.9073 31.0906C24.0696 31.0906 24.171 31.1867 24.2014 31.3577C24.4144 32.6294 25.4184 33.3667 26.6658 33.5591C26.6963 33.5591 26.7267 33.5591 26.7774 33.5591C26.7774 33.4736 26.7875 33.3988 26.7875 33.324C26.7875 31.7317 26.7875 30.1395 26.7875 28.5472C26.7875 28.3549 26.7267 28.2908 26.5644 28.248C25.7937 28.0557 25.0229 27.8633 24.3333 27.4466C23.3698 26.8695 22.6903 26.0681 22.4469 24.9033C21.9601 22.6271 23.0453 20.6074 25.1446 19.8915C25.6618 19.7098 26.1993 19.6029 26.7571 19.4533C26.7571 19.1541 26.7571 18.8015 26.7571 18.4488C26.7571 18.0962 26.8484 18 27.1831 18C27.4366 18 27.6901 18 27.9437 18C28.2175 18 28.3189 18.1069 28.3189 18.4061C28.3189 18.7694 28.3189 19.1327 28.3189 19.4213L28.3088 19.4319ZM28.3088 28.6862V33.5911C29.0694 33.5056 29.6678 33.2598 30.0937 32.8645C31.0065 32.0096 31.0572 30.428 30.1748 29.5838C29.6475 29.0815 28.9984 28.8678 28.3088 28.6755V28.6862ZM26.747 26.1108V21.4837C26.2399 21.5478 25.7835 21.7081 25.3576 21.9966C24.2217 22.8088 24.2014 24.604 25.3576 25.3841C25.7734 25.662 26.2399 25.8543 26.7368 26.1001L26.747 26.1108Z" fill="#213745"/>
</svg>
