<svg width="61" height="60" viewBox="0 0 61 60" fill="none" xmlns="http://www.w3.org/2000/svg">
<path d="M31.0028 37.1968C26.5604 37.1968 22.3 35.5007 19.1588 32.4817C16.0175 29.4626 14.2528 25.3679 14.2528 21.0984C14.2528 16.8288 16.0175 12.7341 19.1588 9.71511C22.3 6.69607 26.5604 5 31.0028 5C35.4452 5 39.7056 6.69607 42.8469 9.71511C45.9881 12.7341 47.7528 16.8288 47.7528 21.0984C47.7528 25.3679 45.9881 29.4626 42.8469 32.4817C39.7056 35.5007 35.4452 37.1968 31.0028 37.1968ZM31.0028 37.1968L40.4945 53L44.9556 44.3257L55 44.9481L45.5083 29.1476M16.4917 29.1476L7 44.9508L17.0444 44.3257L21.5055 52.9973L30.9972 37.1968" stroke="#213745" stroke-width="3" stroke-linecap="round" stroke-linejoin="round"/>
<path d="M33 21H29V37H33V21Z" fill="#213745" stroke="#213745" stroke-width="2" stroke-linecap="round" stroke-linejoin="round"/>
<path d="M26 26H22V35H26V26Z" fill="#213745" stroke="#213745" stroke-width="2" stroke-linecap="round" stroke-linejoin="round"/>
<path d="M40 18H36V35H40V18Z" fill="#213745" stroke="#213745" stroke-width="2" stroke-linecap="round" stroke-linejoin="round"/>
</svg>
