<svg width="57" height="56" viewBox="0 0 57 56" fill="none" xmlns="http://www.w3.org/2000/svg">
<path d="M30.4775 3.05285C30.4775 3.05285 45.6181 2.84729 47.0591 19.5296L52.5006 31.4227H47.1065V38.6313C47.1065 38.6313 46.9286 42.9106 41.1076 43.0964C35.2866 43.2822 35.2846 43.0964 35.2846 43.0964" stroke="white" stroke-width="2" stroke-miterlimit="10" stroke-linecap="round"/>
<path d="M19.5169 25.0966C22.968 25.4089 26.0001 21.6751 26.4112 18.5304C26.7552 15.8996 25.4131 13.0414 23.0135 11.9049C21.6655 11.2665 20.1099 11.1854 18.6294 11.3692C16.9335 11.5788 15.1862 12.1816 14.1169 13.5138C13.3619 14.4527 13.0219 15.6545 12.8222 16.8424C12.1225 21.0426 12.9547 25.3753 14.4015 29.3285L18.2618 38.6302L18.7263 52.5454" stroke="white" stroke-width="2" stroke-miterlimit="10" stroke-linecap="round"/>
<path d="M21.3799 16.0307L27.9876 9.16211" stroke="white" stroke-width="2" stroke-miterlimit="10" stroke-linecap="round"/>
<path d="M20.7162 31.9688L20.2734 30.1582" stroke="white" stroke-width="2" stroke-miterlimit="10" stroke-linecap="round"/>
<path d="M27.0081 29.3792L25.917 27.8691" stroke="white" stroke-width="2" stroke-miterlimit="10" stroke-linecap="round"/>
<path d="M31.7036 24.1338L30.1797 23.0625" stroke="white" stroke-width="2" stroke-miterlimit="10" stroke-linecap="round"/>
<path d="M33.3932 17.3613L31.5312 17.4463" stroke="white" stroke-width="2" stroke-miterlimit="10" stroke-linecap="round"/>
<path d="M7.63281 17.9405C7.63281 17.9405 8.79702 1.93419 25.6691 7.84219" stroke="white" stroke-width="2" stroke-miterlimit="10" stroke-linecap="round"/>
<path d="M4.17188 17.891C4.17188 17.891 7.24151 2.86704 19.0081 3.14574C19.0081 3.14574 34.123 2.42824 33.7969 17.9938C33.7969 17.9938 34.0934 30.6301 19.5517 32.9091" stroke="white" stroke-width="2" stroke-miterlimit="10" stroke-linecap="round"/>
<path d="M19.475 20.6316C20.9006 20.6316 22.0564 19.4758 22.0564 18.0502C22.0564 16.6245 20.9006 15.4688 19.475 15.4688C18.0493 15.4688 16.8936 16.6245 16.8936 18.0502C16.8936 19.4758 18.0493 20.6316 19.475 20.6316Z" stroke="white" stroke-width="2" stroke-miterlimit="10" stroke-linecap="round"/>
<path d="M37.4307 43.1777V52.5467" stroke="white" stroke-width="2" stroke-miterlimit="10" stroke-linecap="round"/>
</svg>
