<svg width="271" height="20" viewBox="0 0 271 20" fill="none" xmlns="http://www.w3.org/2000/svg">
<path d="M0 19.6421V0.351268H9.27747C11.6641 0.351268 13.4557 0.810573 14.648 1.72918C15.8592 2.64779 16.4648 3.86121 16.4648 5.3673C16.4648 6.37777 16.2208 7.26007 15.733 8.01205C15.2452 8.74693 14.5765 9.31733 13.7248 9.72109C12.8753 10.1248 11.8975 10.3278 10.7957 10.3278L11.3109 9.19769C12.5052 9.19769 13.5629 9.40064 14.4839 9.8044C15.4071 10.1911 16.1199 10.77 16.6267 11.5412C17.1503 12.3124 17.4131 13.2588 17.4131 14.3804C17.4131 16.0339 16.7718 17.3285 15.487 18.2663C14.2022 19.1849 12.3139 19.6442 9.81788 19.6442H0V19.6421ZM4.36747 16.2795H9.49405C10.6338 16.2795 11.4917 16.0958 12.0721 15.7284C12.6693 15.3417 12.9678 14.7371 12.9678 13.9104C12.9678 13.0836 12.6693 12.5047 12.0721 12.1202C11.4938 11.7164 10.6338 11.5134 9.49405 11.5134H4.04154V8.26199H8.73495C9.80106 8.26199 10.6148 8.07827 11.1763 7.71083C11.7545 7.32416 12.0447 6.74522 12.0447 5.97401C12.0447 5.20281 11.7545 4.66019 11.1763 4.29274C10.6148 3.90607 9.80106 3.71381 8.73495 3.71381H4.36747V16.2795ZM30.3305 19.6421V0.351268H38.5503C40.2493 0.351268 41.715 0.635396 42.9451 1.20579C44.1752 1.75695 45.1236 2.55593 45.7922 3.60272C46.4609 4.64951 46.7953 5.89924 46.7953 7.34979C46.7953 8.80034 46.4609 10.0223 45.7922 11.0712C45.1236 12.1009 44.1731 12.8892 42.9451 13.4404C41.715 13.9916 40.2514 14.2671 38.5503 14.2671H32.7718L34.7253 12.3103V19.6399H30.3305V19.6421ZM42.4005 19.6421L37.6545 12.6414H42.3479L47.1485 19.6421H42.4026H42.4005ZM34.7232 12.808L32.7697 10.7145H38.3042C39.6605 10.7145 40.6741 10.4197 41.3428 9.83217C42.0114 9.22546 42.3458 8.39872 42.3458 7.35193C42.3458 6.30514 42.0114 5.45917 41.3428 4.87168C40.6741 4.2842 39.6605 3.98939 38.3042 3.98939H32.7697L34.7232 1.86804V12.808ZM69.0868 19.9732C67.5855 19.9732 66.1934 19.7254 64.9086 19.2298C63.6427 18.7341 62.5388 18.0356 61.5988 17.1362C60.6757 16.2368 59.9524 15.1793 59.4288 13.9681C58.922 12.7546 58.6697 11.4323 58.6697 9.99881C58.6697 8.56535 58.922 7.24298 59.4288 6.02956C59.9524 4.81614 60.6862 3.76081 61.6262 2.86142C62.5661 1.96204 63.6701 1.26347 64.936 0.767847C66.2018 0.272225 67.577 0.0244141 69.0595 0.0244141C70.542 0.0244141 71.934 0.272225 73.1831 0.767847C74.4489 1.26347 75.5424 1.96204 76.4655 2.86142C77.4054 3.76081 78.1372 4.81827 78.6629 6.02956C79.1865 7.22375 79.4493 8.54612 79.4493 9.99881C79.4493 11.4515 79.1865 12.7632 78.6629 13.9958C78.1393 15.2092 77.4054 16.2646 76.4655 17.164C75.5424 18.0463 74.4489 18.7341 73.1831 19.2319C71.9361 19.7275 70.5693 19.9753 69.0868 19.9753V19.9732ZM69.0595 16.1706C69.909 16.1706 70.6871 16.0232 71.3915 15.7305C72.1148 15.4357 72.7478 15.0148 73.2903 14.4637C73.8328 13.9125 74.2492 13.2609 74.5372 12.5068C74.8443 11.7527 74.9978 10.9174 74.9978 9.99881C74.9978 9.0802 74.8443 8.2449 74.5372 7.49079C74.2471 6.73667 73.8328 6.0851 73.2903 5.53394C72.7667 4.98277 72.1422 4.55978 71.4188 4.26711C70.6955 3.9723 69.909 3.82703 69.0595 3.82703C68.21 3.82703 67.4235 3.97444 66.7002 4.26711C65.9958 4.56192 65.3712 4.98277 64.8287 5.53394C64.2862 6.0851 63.8614 6.73667 63.5544 7.49079C63.2642 8.2449 63.1213 9.0802 63.1213 9.99881C63.1213 10.9174 63.2663 11.7356 63.5544 12.5068C63.8614 13.2609 64.2778 13.9125 64.8014 14.4637C65.3439 15.0148 65.9768 15.4378 66.7002 15.7305C67.4235 16.0232 68.21 16.1706 69.0595 16.1706ZM96.2611 19.6421L90.0537 0.351268H94.6104L100.008 17.4374H97.7288L103.373 0.351268H107.442L112.867 17.4374H110.669L116.202 0.351268H120.407L114.196 19.6421H109.475L104.674 4.64951H105.921L100.984 19.6421H96.2632H96.2611ZM132.446 19.6421V0.351268H136.081L147.285 14.2415H145.521V0.351268H149.861V19.6421H146.253L135.022 5.75184H136.786V19.6421H132.446ZM163.941 19.6421V0.351268H168.336V16.004H177.857V19.6421H163.941ZM198.805 19.9732C197.304 19.9732 195.912 19.7254 194.627 19.2298C193.361 18.7341 192.257 18.0356 191.317 17.1362C190.394 16.2368 189.671 15.1793 189.147 13.9681C188.64 12.7546 188.388 11.4323 188.388 9.99881C188.388 8.56535 188.64 7.24298 189.147 6.02956C189.671 4.81614 190.405 3.76081 191.345 2.86142C192.285 1.96204 193.388 1.26347 194.654 0.767847C195.92 0.272225 197.295 0.0244141 198.778 0.0244141C200.26 0.0244141 201.652 0.272225 202.901 0.767847C204.167 1.26347 205.261 1.96204 206.184 2.86142C207.124 3.76081 207.856 4.81827 208.381 6.02956C208.905 7.22375 209.168 8.54612 209.168 9.99881C209.168 11.4515 208.905 12.7632 208.381 13.9958C207.856 15.2092 207.124 16.2646 206.184 17.164C205.261 18.0463 204.167 18.7341 202.901 19.2319C201.655 19.7275 200.288 19.9753 198.805 19.9753V19.9732ZM198.778 16.1706C199.627 16.1706 200.405 16.0232 201.11 15.7305C201.833 15.4357 202.466 15.0148 203.009 14.4637C203.551 13.9125 203.968 13.2609 204.256 12.5068C204.563 11.7527 204.716 10.9174 204.716 9.99881C204.716 9.0802 204.563 8.2449 204.256 7.49079C203.965 6.73667 203.551 6.0851 203.009 5.53394C202.485 4.98277 201.861 4.55978 201.137 4.26711C200.414 3.97444 199.627 3.82703 198.778 3.82703C197.928 3.82703 197.142 3.97444 196.419 4.26711C195.714 4.56192 195.09 4.98277 194.547 5.53394C194.005 6.0851 193.58 6.73667 193.273 7.49079C192.983 8.2449 192.84 9.0802 192.84 9.99881C192.84 10.9174 192.985 11.7356 193.273 12.5068C193.58 13.2609 193.996 13.9125 194.52 14.4637C195.062 15.0148 195.695 15.4378 196.419 15.7305C197.142 16.0232 197.928 16.1706 198.778 16.1706ZM231.281 19.9732C229.781 19.9732 228.387 19.7254 227.104 19.2298C225.839 18.7341 224.735 18.0356 223.795 17.1362C222.872 16.2368 222.148 15.1793 221.625 13.9681C221.118 12.7546 220.866 11.4323 220.866 9.99881C220.866 8.56535 221.118 7.24298 221.625 6.02956C222.148 4.81614 222.882 3.76081 223.822 2.86142C224.762 1.96204 225.866 1.26347 227.132 0.767847C228.398 0.272225 229.771 0.0244141 231.255 0.0244141C232.74 0.0244141 234.13 0.272225 235.377 0.767847C236.643 1.26347 237.738 1.96204 238.659 2.86142C239.599 3.76081 240.333 4.81827 240.857 6.02956C241.382 7.22375 241.643 8.54612 241.643 9.99881C241.643 11.4515 241.382 12.7632 240.857 13.9958C240.333 15.2092 239.599 16.2646 238.659 17.164C237.738 18.0463 236.643 18.7341 235.377 19.2319C234.13 19.7275 232.765 19.9753 231.281 19.9753V19.9732ZM231.255 16.1706C232.105 16.1706 232.883 16.0232 233.587 15.7305C234.311 15.4357 234.944 15.0148 235.486 14.4637C236.029 13.9125 236.445 13.2609 236.733 12.5068C237.042 11.7527 237.196 10.9174 237.196 9.99881C237.196 9.0802 237.042 8.2449 236.733 7.49079C236.445 6.73667 236.029 6.0851 235.486 5.53394C234.963 4.98277 234.338 4.55978 233.615 4.26711C232.891 3.9723 232.105 3.82703 231.255 3.82703C230.406 3.82703 229.617 3.97444 228.894 4.26711C228.19 4.56192 227.565 4.98277 227.022 5.53394C226.48 6.0851 226.055 6.73667 225.748 7.49079C225.458 8.2449 225.313 9.0802 225.313 9.99881C225.313 10.9174 225.458 11.7356 225.748 12.5068C226.055 13.2609 226.472 13.9125 226.995 14.4637C227.538 15.0148 228.171 15.4378 228.894 15.7305C229.617 16.0253 230.404 16.1706 231.255 16.1706ZM254.535 19.6421V0.351268H262.755C264.454 0.351268 265.92 0.635396 267.148 1.20579C268.378 1.75695 269.328 2.55593 269.997 3.60272C270.666 4.64951 271 5.89924 271 7.34979C271 8.80034 270.666 10.0223 269.997 11.0712C269.328 12.118 268.378 12.9277 267.148 13.4959C265.92 14.0471 264.454 14.3227 262.755 14.3227H256.977L258.93 12.3103V19.6399H254.535V19.6421ZM258.93 12.808L256.977 10.6867H262.511C263.867 10.6867 264.879 10.3919 265.547 9.8044C266.218 9.21692 266.553 8.39872 266.553 7.35193C266.553 6.30514 266.218 5.45917 265.547 4.87168C264.879 4.2842 263.867 3.98939 262.511 3.98939H256.977L258.93 1.86804V12.808Z" fill="black"/>
</svg>
