<svg width="24" height="24" viewBox="0 0 24 24" fill="none" xmlns="http://www.w3.org/2000/svg">
<path d="M6.99947 17.0002C5.75174 17.0002 4.55512 16.5261 3.67285 15.6822C2.79058 14.8383 2.29492 13.6937 2.29492 12.5002C2.29492 11.3067 2.79058 10.1621 3.67285 9.31822C4.55512 8.4743 5.75174 8.0002 6.99947 8.0002C7.29415 6.68737 8.15623 5.53368 9.39605 4.79291C10.01 4.42612 10.6981 4.17174 11.4212 4.04431C12.1444 3.91687 12.8883 3.91887 13.6106 4.0502C14.3328 4.18152 15.0193 4.43959 15.6308 4.80968C16.2422 5.17976 16.7667 5.65461 17.1742 6.20712C17.5818 6.75963 17.8644 7.37898 18.006 8.02979C18.1476 8.68061 18.1454 9.35015 17.9995 10.0002H18.9995C19.9277 10.0002 20.818 10.3689 21.4743 11.0253C22.1307 11.6817 22.4995 12.5719 22.4995 13.5002C22.4995 14.4285 22.1307 15.3187 21.4743 15.9751C20.818 16.6314 19.9277 17.0002 18.9995 17.0002H17.9995M8.99951 14.0002L11.9995 11.0002M11.9995 11.0002L14.9995 14.0002M11.9995 11.0002V20.0002" stroke="#64748B" stroke-width="2" stroke-linecap="round" stroke-linejoin="round"/>
</svg>
