<svg width="61" height="60" viewBox="0 0 61 60" fill="none" xmlns="http://www.w3.org/2000/svg">
<path d="M26.0419 46.3744C25.9492 45.5515 25.7406 44.7401 25.3349 43.9636C24.6279 42.6075 23.4109 41.7267 22.4373 40.5793C21.6029 39.6057 20.8379 38.5626 20.1541 37.4847C18.2533 34.4944 16.8393 31.0289 16.8972 27.436C16.9668 22.7187 19.7832 18.836 23.4573 16.1007C26.7953 13.6088 32.1847 13.1684 35.9399 14.6751C40.1008 16.3325 43.4736 19.9834 44.7021 24.3414C46.1393 29.4411 44.0531 34.054 41.0049 38.099C40.4601 38.8175 39.8922 39.513 39.3127 40.1852C38.0494 41.634 36.8208 43.3377 36.3688 45.2385C35.4995 48.8894 37.4583 57.3039 31.5241 57.8255C30.226 57.9414 28.8815 57.0489 28.0934 56.1101C27.0155 54.8468 26.5287 53.1662 26.2853 51.5552C26.0303 49.8398 26.2505 48.0781 26.0535 46.3975L26.0419 46.3744Z" stroke="#213745" stroke-width="2.5" stroke-miterlimit="10" stroke-linecap="round"/>
<path d="M24 53.8081L38.5457 52" stroke="#213745" stroke-width="2.5" stroke-miterlimit="10" stroke-linecap="round"/>
<path d="M23.8154 49L38.3611 47.134" stroke="#213745" stroke-width="2.5" stroke-miterlimit="10" stroke-linecap="round"/>
<path d="M51.8652 27.1236L56.9997 26.2891" stroke="#213745" stroke-width="2.5" stroke-miterlimit="10" stroke-linecap="round"/>
<path d="M47.2158 12.7059L50.2872 8.55664" stroke="#213745" stroke-width="2.5" stroke-miterlimit="10" stroke-linecap="round"/>
<path d="M32.2295 7.3161V2.18164" stroke="#213745" stroke-width="2.5" stroke-miterlimit="10" stroke-linecap="round"/>
<path d="M14.9129 11.372L10.9375 7.31543" stroke="#213745" stroke-width="2.5" stroke-miterlimit="10" stroke-linecap="round"/>
<path d="M9.78007 28.2822H4.39062" stroke="#213745" stroke-width="2.5" stroke-miterlimit="10" stroke-linecap="round"/>
<path d="M34.6296 22.0391C34.698 21.9976 34.7801 21.97 34.8348 21.9285C36.1339 20.7395 37.4331 21.0022 38.1442 22.6474C38.2673 22.9377 38.1989 23.5599 37.9938 23.6981C36.8587 24.4862 37.228 25.3987 37.6793 26.3527C37.7203 26.3803 37.7887 26.4356 37.857 26.4356C39.881 26.5739 40.2776 27.0716 39.84 29.1039C39.7579 29.4634 39.293 29.9058 38.9374 29.9888C37.4741 30.3206 37.4741 30.2791 36.8587 31.634C36.8861 31.7031 36.8861 31.7999 36.9271 31.8552C38.1989 33.2792 38.0622 34.2609 36.3254 35.1733C35.9972 35.3393 35.1903 35.1319 34.9442 34.8277C34.3424 34.0673 33.7134 34.2194 33.1253 34.6203C32.7971 34.8415 32.5236 35.3669 32.4962 35.7817C32.4279 36.6942 32.0586 37.0674 31.1561 36.9845C30.7321 36.943 30.2671 37.0674 29.8706 36.943C29.5423 36.8324 29.0227 36.4176 29.05 36.2103C29.3099 34.7171 28.3663 34.3023 27.2312 33.9567C27.0261 34.1503 26.7799 34.3438 26.5748 34.5788C26.0141 35.2286 25.4671 35.2286 24.9064 34.5788C24.6192 34.2609 24.1679 34.012 24.0311 33.6387C23.867 33.2101 23.785 32.4082 23.9901 32.2562C25.2209 31.3851 24.5098 30.5141 24.1816 29.5463C23.7576 29.5463 23.3337 29.6431 22.9918 29.5187C22.6362 29.3943 22.1713 29.0763 22.1029 28.7721C21.9661 28.1361 21.9798 27.431 22.0619 26.7674C22.1713 26.007 22.8003 25.8826 23.4157 25.9932C24.3183 26.1591 24.4824 25.5231 24.8243 24.9286C25.1935 24.2926 24.8517 23.9747 24.4687 23.629C23.785 23.0207 23.7986 22.44 24.4687 21.8317C24.7012 21.6243 24.9337 21.4031 25.1388 21.1681C25.7542 20.4353 26.4243 20.3662 26.9714 21.1681C27.5321 21.9838 28.1201 21.6381 28.7902 21.4446C29.556 21.2372 29.4876 20.698 29.4603 20.145C29.4193 19.3293 29.7612 18.9698 30.568 19.0251C31.033 19.0528 31.539 18.9283 31.9629 19.0666C32.3185 19.191 32.8792 19.6473 32.8518 19.8823C32.674 21.2925 33.5356 21.7073 34.6023 22.0114L34.6296 22.0391ZM34.5202 28.0255C34.5202 26.007 32.9612 24.3756 30.9919 24.3618C29.0637 24.3479 27.4226 26.007 27.409 27.9841C27.409 29.9749 29.009 31.634 30.9372 31.6617C32.8792 31.6755 34.5065 30.0164 34.5065 28.0394L34.5202 28.0255Z" fill="#213745"/>
</svg>
