<svg width="18" height="19" viewBox="0 0 18 19" fill="none" xmlns="http://www.w3.org/2000/svg">
<path d="M5 8.12109V13.1211M5 5.12109V5.13109M9 13.1211V8.12109M13 13.1211V10.1211C13 9.59066 12.7893 9.08195 12.4142 8.70688C12.0391 8.33181 11.5304 8.12109 11 8.12109C10.4696 8.12109 9.96086 8.33181 9.58579 8.70688C9.21071 9.08195 9 9.59066 9 10.1211M1 3.12109C1 2.59066 1.21071 2.08195 1.58579 1.70688C1.96086 1.33181 2.46957 1.12109 3 1.12109H15C15.5304 1.12109 16.0391 1.33181 16.4142 1.70688C16.7893 2.08195 17 2.59066 17 3.12109V15.1211C17 15.6515 16.7893 16.1602 16.4142 16.5353C16.0391 16.9104 15.5304 17.1211 15 17.1211H3C2.46957 17.1211 1.96086 16.9104 1.58579 16.5353C1.21071 16.1602 1 15.6515 1 15.1211V3.12109Z" stroke="white" stroke-width="2" stroke-linecap="round" stroke-linejoin="round"/>
</svg>
