<svg width="24" height="25" viewBox="0 0 24 25" fill="none" xmlns="http://www.w3.org/2000/svg">
<path d="M3 7.2207C3 6.69027 3.21071 6.18156 3.58579 5.80649C3.96086 5.43142 4.46957 5.2207 5 5.2207H19C19.5304 5.2207 20.0391 5.43142 20.4142 5.80649C20.7893 6.18156 21 6.69027 21 7.2207M3 7.2207V17.2207C3 17.7511 3.21071 18.2598 3.58579 18.6349C3.96086 19.01 4.46957 19.2207 5 19.2207H19C19.5304 19.2207 20.0391 19.01 20.4142 18.6349C20.7893 18.2598 21 17.7511 21 17.2207V7.2207M3 7.2207L12 13.2207L21 7.2207" stroke="#D4D9D5" stroke-width="2" stroke-linecap="round" stroke-linejoin="round"/>
</svg>
