<svg width="25" height="25" viewBox="0 0 25 25" fill="none" xmlns="http://www.w3.org/2000/svg">
<path d="M17.7085 22.9163V20.833M9.37516 15.6247L15.6252 9.37467M11.4585 6.24967L11.9408 5.69134C12.9177 4.7146 14.2425 4.16593 15.624 4.16602C17.0054 4.16612 18.3302 4.71498 19.3069 5.69186C20.2837 6.66874 20.8323 7.99362 20.8323 9.37504C20.8322 10.7565 20.2833 12.0813 19.3064 13.058L18.7502 13.5413M13.542 18.7497L13.1284 19.3059C12.1402 20.2832 10.8063 20.8313 9.41646 20.8313C8.02657 20.8313 6.69276 20.2832 5.70448 19.3059C5.21735 18.8243 4.83062 18.2507 4.56668 17.6186C4.30273 16.9864 4.16683 16.3082 4.16683 15.6231C4.16683 14.9381 4.30273 14.2598 4.56668 13.6277C4.83062 12.9955 5.21735 12.422 5.70448 11.9403L6.25031 11.458M20.8335 17.708H22.9168M2.0835 7.29134H4.16683M7.29183 2.08301V4.16634" stroke="#213745" stroke-width="1.5" stroke-linecap="round" stroke-linejoin="round"/>
</svg>
