<svg width="54" height="54" viewBox="0 0 54 54" fill="none" xmlns="http://www.w3.org/2000/svg">
<g clip-path="url(#clip0_4701_27047)">
<path d="M40.1137 35.6593C41.2396 34.1939 41.1733 32.1955 39.937 30.7745C39.076 29.7975 37.9501 29.2868 36.6034 29.2646C36.4931 29.2646 36.3827 29.2646 36.2944 29.2646C35.7424 29.2646 35.1905 29.2646 34.6386 29.2868C34.3516 29.2868 34.0425 29.2868 33.7555 29.2868H32.5192C31.4154 29.3312 30.2674 29.3534 29.1194 29.3534C28.9207 29.3534 28.6999 29.3534 28.4792 29.309C28.5012 29.2646 28.5454 29.2424 28.5675 29.198C28.7441 28.9981 28.8986 28.7983 29.0752 28.5763C30.9738 26.0006 31.7686 23.425 31.4816 20.6495C31.2829 18.6289 30.5323 17.0524 29.1856 15.8756C28.6558 15.4093 27.9272 14.8764 26.9558 14.832C26.9117 14.832 26.8675 14.832 26.8234 14.832C25.4767 14.832 24.1521 15.92 23.7989 17.3189C23.0041 20.5607 21.4587 23.0475 19.0965 24.9126C18.6329 25.2901 18.1472 25.712 17.5953 26.2671C16.0499 27.8435 14.7032 29.6865 13.4669 31.9291C13.1799 32.462 12.7383 32.7284 12.1202 32.7506H12.0098C12.0098 32.7506 11.6787 32.7506 11.5904 32.7506C11.5462 32.7506 11.502 32.7506 11.4579 32.7506C11.0384 31.596 9.95667 30.8411 8.72036 30.8411H6.68929C5.45298 30.8411 4.1946 30.8411 2.9583 30.8411C2.6713 30.8411 2.42845 30.8633 2.20769 30.9299C0.860998 31.3074 0 32.462 0 33.994C0 38.1462 0 50.647 0 50.647C0 50.6914 0 50.7358 0 50.8024C0.0441537 52.4899 1.30253 53.7111 2.9583 53.7333C3.9076 53.7333 4.85691 53.7333 5.80621 53.7333C6.75552 53.7333 7.74898 53.7333 8.74244 53.7333C9.89043 53.7333 10.7956 53.2005 11.3475 52.2013C12.1423 52.7786 13.0474 53.2227 13.9967 53.5335C15.1227 53.8888 16.2486 53.8888 17.3524 53.911H19.0965C21.0172 53.9776 23.0041 54.022 24.9689 54.022C26.2273 54.022 27.4857 54.022 28.7661 54.022C30.2674 54.022 31.7686 54.022 33.2698 54.022H34.2633C35.0801 54.022 35.8528 53.8 36.5593 53.4003C37.619 52.8008 38.3254 51.8238 38.5462 50.7136C38.7228 49.8477 38.5462 48.9595 38.1047 48.1824C39.1423 47.6495 39.8487 46.8501 40.1799 45.7843C40.5331 44.6741 40.4007 43.5861 39.7604 42.5648C40.9305 41.8098 41.637 40.5886 41.7032 39.212C41.7694 37.8353 41.1954 36.5475 40.1357 35.6815L40.1137 35.6593ZM8.5879 51.0467H3.13491C2.71545 51.0467 2.64922 50.9801 2.64922 50.5804V34.0162C2.64922 33.6166 2.71545 33.55 3.11284 33.55H5.87245H8.63205C9.00736 33.55 9.09567 33.6388 9.09567 34.0162V50.5804C9.09567 50.9579 9.00736 51.0467 8.63205 51.0467H8.5879ZM38.5904 40.0557C38.3034 40.3444 37.906 40.522 37.5086 40.522C36.4489 40.522 35.3892 40.522 34.3074 40.522C33.027 40.522 31.7465 40.522 30.4661 40.522C30.1791 40.522 29.9362 40.5664 29.7375 40.6552C29.2077 40.8773 28.8986 41.4768 29.009 42.0763C29.1194 42.6758 29.6051 43.1199 30.2232 43.1643C30.2674 43.1643 30.3115 43.1643 30.3778 43.1643H35.8307C36.2944 43.1643 36.6917 43.2753 37.0229 43.4751C37.4424 43.7416 37.6852 44.1412 37.6852 44.5853C37.6852 45.0072 37.4424 45.4069 37.0229 45.6733C36.6917 45.8731 36.3385 45.9842 35.9191 45.9842H33.9101H30.5102C30.3998 45.9842 30.2895 45.9842 30.157 45.9842C29.5168 46.0508 29.0532 46.5615 28.9869 47.1832C28.9428 47.8271 29.3622 48.4266 29.9804 48.582C30.157 48.6264 30.3336 48.6264 30.4661 48.6264H32.6517C33.1594 48.6264 33.6672 48.6264 34.175 48.6264C34.7931 48.6264 35.2567 48.8485 35.61 49.2704C35.9853 49.7144 35.9632 50.2917 35.5658 50.7358C35.1905 51.1133 34.7269 51.3131 34.1308 51.3131H32.7179C29.6934 51.3131 26.5805 51.3131 23.5119 51.2909C21.0834 51.2909 18.6991 51.2465 16.381 51.1799C14.4603 51.1355 12.8708 50.3361 11.6787 48.8485V48.8263C11.6787 44.5631 11.6787 40.2778 11.6787 36.0146V35.4817C11.6787 35.4817 11.8332 35.4817 11.8994 35.4817C12.054 35.4817 12.2085 35.4817 12.3851 35.4817C13.9305 35.3929 15.1006 34.6379 15.8512 33.2613C16.8888 31.3518 17.9264 29.8863 19.0965 28.6651C19.6926 28.0434 20.3549 27.4661 20.9951 26.8888L21.3704 26.5557C23.7989 24.4241 25.4546 21.6264 26.3156 18.2292C26.3818 17.985 26.4702 17.8074 26.6247 17.6519C26.713 17.5631 26.7572 17.5409 26.7792 17.5409C26.7792 17.5409 26.8234 17.5409 26.9338 17.5853C27.0883 17.6519 27.2428 17.763 27.3974 17.8962C28.2142 18.5845 28.6558 19.4949 28.8103 20.7827C29.0752 23.0031 28.435 25.0458 26.8013 27.1996C26.6909 27.3551 26.5585 27.5105 26.4039 27.6659C26.3156 27.7769 26.2273 27.8657 26.139 27.9768C25.6533 28.5763 25.4325 29.2202 25.4767 29.9085C25.565 30.9521 26.2715 31.6848 27.3312 31.8847C27.9052 31.9957 28.5675 32.0623 29.3401 32.0623H29.4064C30.5765 32.0623 31.7686 32.0179 32.9387 31.9957C33.4244 31.9957 33.888 31.9735 34.3737 31.9735C34.5724 31.9735 34.7931 31.9735 34.9918 31.9735C35.4334 31.9735 35.897 31.9513 36.3385 31.9513H36.4268C37.0008 31.9513 37.4644 32.1289 37.8397 32.5064C38.0826 32.7728 38.215 33.0837 38.215 33.3945C38.215 33.7276 38.0384 34.0384 37.7735 34.2827C37.3982 34.6157 36.9346 34.7712 36.3606 34.7712H33.1815C32.1218 34.7712 31.0621 34.7712 30.0025 34.7712C29.5168 34.7712 29.0752 34.9932 28.8324 35.3707C28.5895 35.7259 28.5454 36.17 28.6999 36.5919C28.8545 37.0138 29.1856 37.3024 29.6271 37.3912C29.8038 37.4356 29.9804 37.4356 30.1349 37.4356H34.1087C35.2126 37.4356 36.2944 37.4356 37.3982 37.4356C38.2813 37.4356 38.9657 38.124 38.9657 38.9899C38.9657 39.3896 38.8111 39.7893 38.502 40.0779L38.5904 40.0557Z" fill="#213745"/>
<path d="M47.2006 17.7188C46.9357 17.7188 46.6707 17.7188 46.4058 17.7854C45.7656 17.8742 45.1695 18.1406 44.5734 18.5625C43.7787 18.0074 42.8956 17.7188 41.9684 17.7188C41.0411 17.7188 40.136 18.0296 39.3854 18.6069C37.6192 19.9169 36.8907 21.8487 37.2439 24.1801C37.4647 25.6456 38.2374 26.8224 38.8776 27.6883C40.0918 29.3092 41.6814 30.7747 43.7566 32.2179C44.0215 32.3956 44.3085 32.5066 44.5955 32.5066C44.9046 32.5066 45.1916 32.3956 45.4565 32.1957C45.6773 32.0181 45.8981 31.8627 46.1188 31.7072C46.759 31.2187 47.3993 30.7303 48.0174 30.1974C49.6511 28.7541 50.7329 27.3997 51.4173 25.8898C52.477 23.5806 52.2341 21.3824 50.7329 19.4951C49.8277 18.3627 48.6356 17.7632 47.2668 17.7632L47.2006 17.7188ZM48.5473 25.4679C47.8408 26.6003 46.8694 27.6439 45.4344 28.8207C45.1695 29.0428 44.8825 29.2648 44.5514 29.509C42.6969 28.1324 41.4385 26.8668 40.5334 25.4235C40.0035 24.602 39.7607 23.9359 39.7607 23.2697C39.7607 22.2039 40.0918 21.3824 40.8204 20.7829C41.1515 20.5164 41.5489 20.361 41.9463 20.361C42.4099 20.361 42.8514 20.5387 43.2268 20.8939C43.293 20.9605 43.3592 21.0271 43.4254 21.0937C43.7787 21.4934 44.154 21.6933 44.5514 21.6933C44.9487 21.6933 45.3241 21.4934 45.6552 21.0937C46.0084 20.6719 46.4058 20.4498 46.8474 20.3832C46.9577 20.3832 47.0681 20.361 47.1564 20.361C47.8187 20.361 48.3486 20.6941 48.8122 21.3602C49.1654 21.8931 49.32 22.4704 49.342 23.3363C49.342 23.8914 49.055 24.6242 48.5252 25.4457L48.5473 25.4679Z" fill="#213745"/>
<path d="M7.90304 12.0343C8.12381 13.522 8.91858 14.6988 9.58088 15.587C10.8172 17.2079 12.3626 18.6289 14.4599 20.0722C14.7248 20.2498 14.9897 20.3386 15.2546 20.3386C15.5196 20.3386 15.8286 20.2276 16.0715 20.05C16.2923 19.8723 16.513 19.7169 16.7338 19.5393C17.374 19.0508 18.0142 18.5623 18.6324 18.0294C20.244 16.6083 21.3258 15.2317 22.0543 13.6996C23.0257 11.6125 22.8932 9.5919 21.6569 7.70456C20.7959 6.37233 19.3609 5.57299 17.8376 5.57299C17.1974 5.57299 16.5792 5.70621 15.9832 5.99486C15.7183 6.12808 15.4754 6.28351 15.2326 6.41674C14.4378 5.86164 13.5326 5.55078 12.6275 5.55078C11.7223 5.55078 10.7951 5.86164 10.0224 6.43894C8.27835 7.77118 7.52774 9.70292 7.90304 12.0343Z" fill="#213745"/>
<path d="M15.476 4.37418H15.4981C16.2266 4.37418 16.7564 3.81908 16.8006 3.06414C16.8006 2.86431 16.8006 2.66447 16.8006 2.46464V2.22039V1.97615C16.8006 1.77632 16.8006 1.57648 16.8006 1.35444C16.7564 0.577303 16.2266 0.0222039 15.5201 0H15.476C14.7474 0 14.1734 0.555099 14.1514 1.31003C14.1514 1.86513 14.1514 2.44243 14.1514 3.04194C14.1514 3.79688 14.7254 4.35197 15.476 4.35197V4.37418Z" fill="#213745"/>
<path d="M53.9996 16.2758C53.9996 16.0316 53.9334 15.321 53.2269 15.0102C53.0503 14.9214 52.8516 14.877 52.675 14.877C52.3439 14.877 52.0127 15.0102 51.7699 15.2544C51.3062 15.6985 50.9089 16.0982 50.5556 16.4756C50.0479 17.0085 50.0479 17.8523 50.5556 18.363C50.7985 18.6072 51.1296 18.7404 51.4829 18.7404C51.8361 18.7404 52.1672 18.585 52.4322 18.3408L52.5646 18.2075C52.9179 17.8745 53.2711 17.5192 53.6022 17.1418C53.7568 16.9641 53.8451 16.7643 53.9113 16.6311C53.9113 16.6089 53.9113 16.5867 53.9334 16.5645L54.0217 16.409V16.2536L53.9996 16.2758Z" fill="#213745"/>
<path d="M22.4525 7.01681H22.5629L22.6733 6.9724H22.7174C22.8499 6.92799 23.0486 6.86138 23.2252 6.68375C23.755 6.19526 24.1745 5.77339 24.5498 5.35151C25.0355 4.84082 24.9913 4.01927 24.4615 3.50858C24.2186 3.26434 23.8875 3.15332 23.5563 3.15332C23.2252 3.15332 22.894 3.28654 22.6512 3.53079C22.2317 3.93046 21.8123 4.35233 21.4149 4.77421C21.0396 5.17388 20.9513 5.70677 21.172 6.23967C21.3928 6.75036 21.8123 7.01681 22.4746 7.01681H22.4525Z" fill="#213745"/>
<path d="M6.0045 4.19655C6.04865 4.32977 6.09281 4.5296 6.26942 4.70724C6.68888 5.15132 7.13042 5.6176 7.61611 6.06168C7.83688 6.26151 8.12388 6.37253 8.43295 6.37253C8.78618 6.37253 9.13941 6.21711 9.38226 5.97286C9.86795 5.46217 9.9121 4.68503 9.44849 4.17434C9.05111 3.75247 8.63164 3.33059 8.16803 2.86431C7.92519 2.64227 7.63819 2.53125 7.32911 2.53125C7.13042 2.53125 6.93173 2.57566 6.73303 2.66447C6.26942 2.88651 6.0045 3.30839 5.98242 3.90789V4.01891L6.02658 4.12993V4.17434L6.0045 4.19655Z" fill="#213745"/>
<path d="M43.4693 14.5657C43.4693 14.7878 43.4693 14.9876 43.4693 15.2097C43.4693 15.9424 44.0433 16.4975 44.7498 16.5197H44.7719C45.5004 16.5197 46.0744 15.9424 46.0744 15.2097C46.0744 14.5879 46.0744 14.0106 46.0744 13.4333C46.0744 12.7006 45.5004 12.1455 44.7498 12.1455C44.0213 12.1455 43.4693 12.7006 43.4473 13.4333C43.4473 13.6332 43.4473 13.8552 43.4473 14.055V14.3215V14.5657H43.4693Z" fill="#213745"/>
<path d="M36.8459 18.3627C37.1108 18.6292 37.442 18.7624 37.7952 18.7624C38.1484 18.7624 38.4575 18.6292 38.7004 18.3849C38.9653 18.1407 39.0977 17.8076 39.0977 17.4524C39.0977 17.0971 38.9653 16.7418 38.7004 16.4754L38.6341 16.4088C38.2809 16.0313 37.9056 15.6538 37.5082 15.2986C37.3537 15.1431 37.1771 15.0765 37.0225 15.0099C36.9784 15.0099 36.9342 14.9655 36.89 14.9433L36.7355 14.8545H36.5589C36.0291 14.9433 35.5654 15.2764 35.3888 15.7204C35.1681 16.2533 35.2564 16.7862 35.6317 17.1637C35.9849 17.519 36.3602 17.9186 36.8238 18.3627H36.8459Z" fill="#213745"/>
</g>
<defs>
<clipPath id="clip0_4701_27047">
<rect width="54" height="54" fill="white"/>
</clipPath>
</defs>
</svg>
