<svg width="56" height="56" viewBox="0 0 56 56" fill="none" xmlns="http://www.w3.org/2000/svg">
<path d="M43.3211 16.623H48.3949C48.7598 16.623 49.0557 16.3278 49.0557 15.9636C49.0557 15.5994 48.7598 15.3041 48.3949 15.3041H43.3211C42.9562 15.3041 42.6604 15.5994 42.6604 15.9636C42.6604 16.3278 42.9562 16.623 43.3211 16.623Z" fill="white"/>
<path d="M46.5205 18.5022V13.4283C46.5205 13.0634 46.2252 12.7676 45.861 12.7676C45.4968 12.7676 45.2016 13.0634 45.2016 13.4283V18.5022C45.2016 18.8671 45.4968 19.1629 45.861 19.1629C46.2252 19.1629 46.5205 18.8671 46.5205 18.5022Z" fill="white"/>
<path d="M17.3186 36.9385L22.1581 42.5709H27.9376H37.5592C40.4639 42.3938 40.5512 39.4019 40.5512 39.4019V32.0093L43.0146 30.8648C45.5677 30.6005 43.8074 27.8729 43.8074 27.8729L40.1124 21.8017C39.8531 16.0472 37.8834 9.96104 32.7123 6.82697C29.9572 5.15646 26.6585 4.47828 23.4596 4.71016C21.8589 4.82485 20.2732 5.16892 18.7747 5.74737C17.169 6.36571 15.8227 7.62482 14.4912 8.69444C11.235 11.3149 8.54225 14.8479 8.06603 19.1089C7.96879 19.9791 8.01367 20.8642 7.99621 21.7394C7.94635 24.1504 8.80654 26.4916 9.42238 28.8054C9.91356 30.6554 10.4072 32.5029 10.8984 34.353L11.0256 34.8267V52.0304" stroke="white" stroke-width="2" stroke-miterlimit="10" stroke-linecap="round"/>
<path d="M27.9473 42.5391V51.2506" stroke="white" stroke-width="2" stroke-miterlimit="10" stroke-linecap="round"/>
<path d="M20.373 23.5041L25.9032 17.2285L25.1278 22.1677L28.1372 22.2301L22.3926 29.0068L23.0459 23.7859L20.373 23.5041Z" stroke="white" stroke-width="2" stroke-linecap="round" stroke-linejoin="round"/>
<path d="M14.8008 26.2871V27.5712" stroke="white" stroke-width="2" stroke-linecap="round" stroke-linejoin="round"/>
<path d="M14.8008 19.3633V24.5842" stroke="white" stroke-width="2" stroke-linecap="round" stroke-linejoin="round"/>
<path d="M16.8772 20.6567L14.8103 18.9688L12.9004 20.8961" stroke="white" stroke-width="2" stroke-miterlimit="10" stroke-linecap="round"/>
<path d="M33.4326 19.3633V24.5842" stroke="white" stroke-width="2" stroke-linecap="round" stroke-linejoin="round"/>
<path d="M35.509 20.6567L33.4421 18.9688L31.5322 20.8961" stroke="white" stroke-width="2" stroke-miterlimit="10" stroke-linecap="round"/>
<path d="M33.4326 26.2871V27.5712" stroke="white" stroke-width="2" stroke-linecap="round" stroke-linejoin="round"/>
</svg>
