<svg width="51" height="56" viewBox="0 0 51 56" fill="none" xmlns="http://www.w3.org/2000/svg">
<mask id="path-1-inside-1_4701_27010" fill="white">
<path d="M19.9296 9.36863C19.9296 14.3972 15.8532 18.4736 10.8247 18.4736C5.79615 18.4736 1.71973 14.3972 1.71973 9.36863C1.71973 4.3401 5.79615 0.263672 10.8247 0.263672C15.8532 0.263672 19.9296 4.3401 19.9296 9.36863ZM5.46276 9.36863C5.46276 12.3299 7.86337 14.7306 10.8247 14.7306C13.786 14.7306 16.1866 12.3299 16.1866 9.36863C16.1866 6.40732 13.786 4.0067 10.8247 4.0067C7.86337 4.0067 5.46276 6.40732 5.46276 9.36863Z"/>
</mask>
<path d="M19.9296 9.36863C19.9296 14.3972 15.8532 18.4736 10.8247 18.4736C5.79615 18.4736 1.71973 14.3972 1.71973 9.36863C1.71973 4.3401 5.79615 0.263672 10.8247 0.263672C15.8532 0.263672 19.9296 4.3401 19.9296 9.36863ZM5.46276 9.36863C5.46276 12.3299 7.86337 14.7306 10.8247 14.7306C13.786 14.7306 16.1866 12.3299 16.1866 9.36863C16.1866 6.40732 13.786 4.0067 10.8247 4.0067C7.86337 4.0067 5.46276 6.40732 5.46276 9.36863Z" stroke="#213745" stroke-width="8" mask="url(#path-1-inside-1_4701_27010)"/>
<mask id="path-2-inside-2_4701_27010" fill="white">
<path d="M50.2793 9.36863C50.2793 14.3972 46.2028 18.4736 41.1743 18.4736C36.1458 18.4736 32.0693 14.3972 32.0693 9.36863C32.0693 4.3401 36.1458 0.263672 41.1743 0.263672C46.2028 0.263672 50.2793 4.3401 50.2793 9.36863ZM35.8124 9.36863C35.8124 12.3299 38.213 14.7306 41.1743 14.7306C44.1356 14.7306 46.5362 12.3299 46.5362 9.36863C46.5362 6.40732 44.1356 4.0067 41.1743 4.0067C38.213 4.0067 35.8124 6.40732 35.8124 9.36863Z"/>
</mask>
<path d="M50.2793 9.36863C50.2793 14.3972 46.2028 18.4736 41.1743 18.4736C36.1458 18.4736 32.0693 14.3972 32.0693 9.36863C32.0693 4.3401 36.1458 0.263672 41.1743 0.263672C46.2028 0.263672 50.2793 4.3401 50.2793 9.36863ZM35.8124 9.36863C35.8124 12.3299 38.213 14.7306 41.1743 14.7306C44.1356 14.7306 46.5362 12.3299 46.5362 9.36863C46.5362 6.40732 44.1356 4.0067 41.1743 4.0067C38.213 4.0067 35.8124 6.40732 35.8124 9.36863Z" stroke="#213745" stroke-width="8" mask="url(#path-2-inside-2_4701_27010)"/>
<mask id="path-3-inside-3_4701_27010" fill="white">
<path d="M35.9739 34.8038C35.9739 40.5215 31.3389 45.1565 25.6212 45.1565C19.9036 45.1565 15.2686 40.5215 15.2686 34.8038C15.2686 29.0862 19.9036 24.4512 25.6212 24.4512C31.3389 24.4512 35.9739 29.0862 35.9739 34.8038ZM18.8604 34.8038C18.8604 38.5378 21.8873 41.5647 25.6212 41.5647C29.3551 41.5647 32.3821 38.5378 32.3821 34.8038C32.3821 31.0699 29.3551 28.043 25.6212 28.043C21.8873 28.043 18.8604 31.0699 18.8604 34.8038Z"/>
</mask>
<path d="M35.9739 34.8038C35.9739 40.5215 31.3389 45.1565 25.6212 45.1565C19.9036 45.1565 15.2686 40.5215 15.2686 34.8038C15.2686 29.0862 19.9036 24.4512 25.6212 24.4512C31.3389 24.4512 35.9739 29.0862 35.9739 34.8038ZM18.8604 34.8038C18.8604 38.5378 21.8873 41.5647 25.6212 41.5647C29.3551 41.5647 32.3821 38.5378 32.3821 34.8038C32.3821 31.0699 29.3551 28.043 25.6212 28.043C21.8873 28.043 18.8604 31.0699 18.8604 34.8038Z" stroke="#213745" stroke-width="8" mask="url(#path-3-inside-3_4701_27010)"/>
<circle cx="26.001" cy="35" r="8" fill="#213745"/>
<path d="M2.32715 28.5732C3.4415 26.2719 7.24467 21.8596 13.5425 22.6215" stroke="#213745" stroke-width="3" stroke-linecap="round"/>
<path d="M37.2148 53.9996C36.1005 51.9981 31.9307 48.8232 25.9994 48.8232" stroke="#213745" stroke-width="3" stroke-linecap="round"/>
<path d="M15.0732 53.9996C16.1876 51.9981 20.3574 48.8232 26.2886 48.8232" stroke="#213745" stroke-width="3" stroke-linecap="round"/>
<path d="M48.9141 28.5732C47.7997 26.2719 43.9965 21.8596 37.6987 22.6215" stroke="#213745" stroke-width="3" stroke-linecap="round"/>
</svg>
